<svg xmlns="http://www.w3.org/2000/svg" xmlns:xlink="http://www.w3.org/1999/xlink" viewBox="0 0 266 298" width="200" height="224.06666564941406">
  <defs>
      <path id="path-3" fill="none" d="M59 103c50-41 125-26 126-25 2 2 30 18 30 24"></path>
  </defs>
  <path class="background" d="M130 2l-4 3-2-2c-1-2-2-2-11-1C72 6 37 23 12 51 6 58 0 67 0 69l4 3c11 8 21 23 25 39 5 15 5 18 0 35-3 13-3 17-3 26 0 10 0 11 3 17 2 4 4 6 8 9 5 3 6 3 12 3 22 0 41-17 38-34-1-3-2-4-5-6-7-3-16-15-16-19 0-1 19-14 28-17 25-8 27-33 32-14 1 3 5 1 13-1l23-3c8 0 11 0 13-2 4-3 4-3 4 0 0 2 0 2 10 4 11 2 19 4 21 6 1 2-7 13-24 34l-10 15c-4 7-4 11 3 18 8 9 16 12 43 17 20 4 29 7 29 10 0 4-6 12-15 22-12 13-13 17-13 27 1 13 5 25 11 33 6 11 7 10 4-8l-2-17c0-19 5-28 17-35 11-5 12-6 12-22l1-15c1-1-22-14-38-22-8-4-15-11-18-17l-2-5 5-2c11-4 15-6 17-9l7-20c6-19 9-23 15-31l5-5v-7l-6-18c-5-10-7-12-14-18-23-22-53-36-85-39-15-2-18-1-22 1z"></path>
  <path d="M130 2l-4 3-2-2c-1-2-2-2-11-1C72 6 37 23 12 51 6 58 0 67 0 69l4 3c11 8 21 23 25 39 5 15 5 18 0 35l-4 26c0 10 1 11 3 17l9 9c5 3 6 3 12 3 22 0 41-17 38-34-1-3-2-4-5-6-7-3-16-15-16-19l23-13c22-10 23-11 26-16l6-6c2-2 2-2 2 2l2 4 14-3 23-3c8 0 11 0 13-2 4-3 4-3 4 0-1 2 0 2 10 4 11 2 19 4 20 6 2 2-6 13-23 34l-10 15c-4 7-4 11 3 18 8 9 16 12 43 17 20 4 29 7 29 10 0 4-6 12-15 22-12 13-14 17-13 27 1 13 5 25 10 33 7 11 8 10 5-8l-2-17c0-19 4-28 17-35 11-5 12-6 12-22l1-15c0-1-22-14-38-22-8-4-15-11-18-17l-2-5 5-2c11-4 15-6 17-9l7-20c6-19 8-23 15-31l5-5v-7c-1-5-2-9-7-18-4-10-6-12-13-18-23-22-54-36-85-39-15-2-18-1-22 1zm-9 7l1 6 2-1 4-6 4-4h13c34 2 66 15 90 38 9 9 16 22 18 34 1 4 1 4-5 7-3 3-5 4-5 3l4-15-8 17-9 35c-1 0-2 0-5-3-7-6-23-13-37-16-4 0-4 0-3-3l1-5c2-4 1-4-7 2l-9 6-11 1c-13 1-30 4-31 5-1 0-1-2 1-12l-1-3-16 18c-3 4-3 5-12 8a162 162 0 00-61 37l-10 9 5-15 6-14c2 0 3 1 0-15l-3-14 4 8 3 8 3-23c0-6-1-14-4-22-3-5-3-3-1 5 3 11 3 17 0 8-1-5-4-11-4-9l2 8c2 15 1 17-3 6-3-7-10-20-11-19l2 6 5 25-5-9c-5-13-9-19-18-28l-6-6 5-7c15-20 40-38 68-47 13-5 35-10 41-10 2 0 3 1 3 6zm90 118a137 137 0 01-20 25c-5 3-5 2 0-3a301 301 0 0020-22zm13 6c0 4-2 8-4 8l-21 8 5-8c6-7 8-9 6-4-2 4-1 3 2 0l4-4c1 1 3 0 4-2 3-2 4-2 4 2zM61 154c1 2 1 2 2 0 0-3 2-3 3 0l2 2 3 2c2 2 2 2 0 2l-4 1c-5 0-11 3-14 8l-3 4-2-12c1-7 3-8 4-2l1 3 1-4c1-3 2-5 3-4l2-1c0-3 1-2 2 1zm138 13l-4 7 5-5 6-5-2 4v5l2-2 3-4 2 2 4 2 5 2 6 2 18 9 16 7-1 7v8l-33-9c-34-8-39-10-44-16-3-3-3-3-2-5 2-4 7-10 10-12l3-2-2 4-3 6c-2 4 0 3 2-1l11-11-3 7zm-18 3c-2 5-4 6-4 4l6-8-2 4zm-135 8l5 9 4-6 3-6 1 3c1 2 1 2 2-2l2-4 1 6c0 6 0 6 1 3l2-6v-4l1 4c2 8 1 11-2 15-6 7-17 10-25 7-3-2-5-5-6-17-1-10 1-11 4-1l1 7 1-8c0-12 1-11 5 0zm36-2c0 2-2 6-4 7l1-2 3-9c0-2 0-2 1-1l-1 5zm-50 2l2 13-4-10 1-5 1 2zm227 45c-1 2-10 7-12 7l2-3 4-3c3 0 4 0 6-3 1-3 1-3 2-2l-2 4zm-14 6l-4 3c-3 2-2 0 2-4 4-5 5-4 2 1zm-14 18c-1 2-3 3-3 2 0-2 1-4 3-4v2zm-1 6l-2 3c-1 1-1 1-1-1l1-2h2zm1 8l1 5 1 9-1 7-1-3-3-10c-1-6-1-7 1-9 2-4 3-4 2 1z"></path>
  <path d="M237 75l-7 25 1 2c2 0 2 0 6-16l3-13c1-4-2-2-3 2zM228 81c-3 8-4 17-2 17s2-1 3-10c2-11 1-14-1-7zM45 77l2 6 3 10c1 8 2 7 2-1-1-8-3-14-5-15h-2zM220 79l-1 6c1 2 1 2 2-1 2-3 2-5 1-6s-1-1-2 1zM56 86c1 7 2 7 2 0l-1-4c-2 0-2 0-1 4zM255 196c-1 4-1 5 1 3v-5l-1 2z"></path>
  <text transform="translate(-3 -12)">
      <textPath xlink:href="#path-3" class="name" data-max="9"></textPath>
  </text>
</svg>