<svg xmlns="http://www.w3.org/2000/svg" xmlns:xlink="http://www.w3.org/1999/xlink" viewBox="0 0 244 298" width="200" height="244.26666259765625">
    <defs>
        <path id="path-2" fill="none" d="M68 124c33-11 23-4 43-1l30 14c14 6 22 22 48 32"></path>
    </defs>
    <path class="background" d="M55 1c-10 1-15 5-5 4 15-2 22-1 42 10 18 9 22 11 37 14 9 1-8 3-15 1-8-2-19-2-27 1-6 2-9 3-8 4l13 1c13 0 14 0 29 5 16 5 17 5 29 5 13 0 14 0 25-4 16-5 28-5 29 0 1 2 0 5-1 5-3 0-13 4-15 6-4 4-4 8 0 16s7 15 7 21c0 5-1 6-10 3l-36-18c-17-11-24-11-24-11 0-4-15-5-15-5l-2-8-7-1c-9-1-28 1-39 4-14 4-28 11-39 20l4 8c6 9 9 20 9 33 1 11 1 11-4 28-8 27 1 26 16 29l-13 10-15 11c-12 8-18 17-20 31-1 10 1 21 7 32 6 14 7 21 3 35l-2 7c1 1 6-7 8-12 3-9 3-24 0-33-3-7-1-20-1-20l10 22 9 19v9l-1 12c-2 5-1 4 3-2 7-14 6-30-3-48-4-6-5-9-5-14-1-14 5-23 24-36l15-10c3-4 4-9 1-15l-6-22c1-1 9 0 16 1 9 2 16 5 35 14 18 9 29 14 45 18 12 3 14 3 31 3 13 0 19 0 24-2 7-2 19-7 22-10l3-2-5-23-4-25 6-13c13-21 11-30-5-37l-9-4c-2-3 1-12 8-26l7-15c0-5-10-12-21-15-9-3-27-2-47 3-14 2-18 3-31 3-19 0-21-1-43-9C74 1 65-1 55 1zm136 56c26 62 12-5 12-5-1 0-2 0-2 2l-9 3c-1 2-2-2-1 0z"></path>
    <path d="M55 1c-10 1-15 5-5 4 15-2 22-1 42 10 18 9 22 11 37 14 9 1 12 2 11 3-2 1-19 0-26-2-8-2-19-2-27 1-6 2-9 3-8 4l13 1c13 0 14 0 29 5 16 5 17 5 29 5 13 0 14 0 25-4 16-5 28-5 29 0 1 2 0 5-1 5-3 0-13 4-15 6-4 4-4 8 0 16s7 15 7 21c0 5-1 6-10 3l-36-18c-17-11-19-12-22-10l-2-1c0-4-9-9-13-6l-2-3-2-4-7-1c-9-1-28 1-39 4-14 4-28 11-39 20l4 8c6 9 9 20 9 33 1 11 1 11-4 28-8 27-8 28 7 31l4 1-8 7-15 11c-12 8-18 17-20 31-1 10 1 21 7 32 6 14 7 21 3 35l-2 7c1 1 6-7 8-12 3-9 3-24 0-33-3-7-4-25-3-24l2 4 10 22 9 19v9l-1 12c-2 5-1 4 3-2 7-14 6-30-3-48-4-6-5-9-5-14-1-14 5-23 24-36l15-10c3-4 4-9 1-15l-6-22c1-1 9 0 16 1 9 2 16 5 35 14 18 9 29 14 45 18 12 3 14 3 31 3 13 0 19 0 24-2 7-2 19-7 22-10l3-2-5-23-4-25 6-13c13-21 11-30-5-37l-9-4c-2-3 1-12 8-26l7-15c0-5-10-12-21-15-9-3-27-2-47 3-14 2-18 3-31 3-19 0-21-1-43-9C74 1 65-1 55 1zm160 14l10 5c6 3 7 6 4 10-2 2-2 2-4 0s-2-2-4 3c-3 5-4 4-2-3l2-6c-1-2-3-2-3 1 0 2-4 12-6 12v-2l2-6v-6c-2-2-3-1-4 4l-1 7c-1 2-2 3-5 2-10-2-15-2-25 2-19 6-31 7-46 3-5-2-6-2-3-3l9-2c7-1 33-9 34-10 1-2-6-2-11-1-9 2-16 3-24 2l-19-5 15-1c16 0 28-2 48-6 13-3 23-3 33 0zm8 30l-3 9-3 7v-5c0-3-1-4-2-4l-1 1-2 2-4-1c0-1-2-2-3-1l-2-1c-1 0-2 0-2 2l-1 4-1-1-4-1-3 1c-1 2-1 2-1 0 0-4 4-6 18-10 13-4 15-4 14-2zm-120 8l4 1v16l4-5c4-5 5-5 7-4 3 2 3 2 2 8l-1 4 6-3 5-3 3 1 13 9c31 19 48 25 74 23h14l-8 19-9 22c-2 6-3 13-1 16l2-2 1-5 1 4 2 9 1 3 2-5 2-5 3 5 3 6-2 3c-1 3-3 4-8 6-9 2-29 6-36 6s-21-3-31-5c-16-5-31-11-45-19a91 91 0 00-53-13c-8 1-20 6-24 9l-1 1 12-32 1 8c0 9 1 5 4-13 2-15 2-21 1-25-1-2-1-2-2 3-1 7-1 6-4-6l-4-8v8l-1 11c-1 2-1 3-4-5l-5-13-4-11c22-15 49-22 76-19zm113 18c9 2 17 5 21 9 3 3 3 7-1 11-3 3-3 3-5 2-1-2-2-2-3-1-2 1-2 1-3-1v-2l-2 2-2 3-1-4c-2-5-4-5-3 0l-1 2-2-5-2-5v4l-2 4c-1 1-2-1-3-7 0-4-3-4-2 0 0 7-2 6-3-2-1-5-3-7-4-6v4c1 2 2 5 1 6 0 4 0 4-6-15-1-2 0-2 7-1l16 2zM59 154l2 6 1 4-9 3-9 2-1-2c-2-3-2-10 0-9l1 2 1 4c1 1 2 0 2-3s0-4 1-3c2 2 3 2 3-1 0-4 1-4 2-2l2-1c1-3 3-3 4 0zm-20 12c1 2 0 3-1 3-2 0-3-3-2-6 1-2 2-1 3 3zm18 14v5l1-3c3-7 4-7 4-2s-1 6-3 7c-15 8-28 20-32 29l-4 11c-1 5-1 5-2 4l-2-7c-1-6-1-6 2-11l5-8c4-4 1-4-6 2s-9 10-12 21c-2 8-3 9-4 3-4-12 4-26 17-35l10-7c3-3 4-3 5-2l3-1h2v3c0 1 1 1 2-1h3l2-4c1-8 2-8 3-3v5l2-6c2-7 3-7 4 0z"></path>
    <path d="M206 23l-1 4-1 3-1-3-2-2c-3 0-3 0-1 4 2 3 6 6 7 5l2-10c-1-1-2-2-3-1zm-12 4l2 4c3 2 3 1 3 0 0-2-3-5-5-5v1zM53 99l-1 19c-2 8-1 11 0 9l3-10c3-15 2-27-1-27l-1 9zm6 1l-1 6-1 8 1 3c3 0 5-15 3-17h-2zm160 18c-2 2-10 26-10 32v5l7-19c5-16 6-22 3-18zm-12 11l-1 17 5-16c0-3-3-4-4-1zm-6 2v8c0 10 1 9 2-1 1-7 0-9-2-7z"></path>
    <text transform="translate(5 -5)">
        <textPath xlink:href="#path-2" class="name" data-max="7"></textPath>
    </text>
</svg>