<svg xmlns="http://www.w3.org/2000/svg" xmlns:xlink="http://www.w3.org/1999/xlink" viewBox="0 0 298 270" width="200" height="181.1999969482422">
  <defs>
    <path id="path-4" fill="none" d="M42 148c41 17 76 17 86 18 21 5 28 4 57-4 39-18 72-46 76-55"></path>
  </defs>
  <path class="background" d="M63 1C52 4 50 8 50 20v16l-1 9-9-1c-17-1-21 0-25 6-3 4-3 6 0 22 2 7 2 14 2 30 0 18 0 22-2 29-2 9-9 23-13 29-4 5-3 7 10 14 26 13 49 21 69 23 9 1 9 1 13-2l4-2 1 4 1 3h17l26 1c23 2 47-6 84-30l18-12 1 3c0 7-6 12-22 20-10 5-9 4-12 18-1 8-4 16-7 20-2 2-6 2-54 4l-52 2-13-4c-29-8-38-10-49-8-7 1-13 4-18 8-5 3-4 4 2 2s18-4 23-3c7 1 13 3 36 12l26 11c11 4-4 4-21 0-20-5-30-5-37 2l-2 3c12-4 28-1 54 10 24 10 36 13 52 10 18-4 33-4 48-2 18 2 34 1 42-2 6-2 14-9 18-15l2-3-4-11-3-10 4-1c5-1 16-7 22-12l9-9c2-5 3-6 3-12-1-4-1-7-3-9-4-4-7-10-8-13 0-2 0-3 4-6l8-9c4-5 4-5 3-13l-4-27a132 132 0 01-2-54c2-12 1-12-12-12-18 1-31 6-61 22-32 18-44 22-59 22-6 0-9 1-10 2h-4l-8-2-10-1c-4-1-4-1-7 4-4 5-4 4-6-2v-3s-55 1-51-6a441 441 0 0124-40c0-7-3-12-11-17l-7-5 4-3c8-2 18-1 33 4 14 6 21 7 24 6 2-1 1-2-4-3-7-2-16-7-23-14C89 1 77-2 63 1z"></path>
  <path d="M63 1C52 4 50 8 51 20l-1 16-1 9-9-1c-16-1-21 0-25 6-3 4-3 6 0 22 2 7 2 14 2 30 0 18 0 21-2 29-2 9-9 23-13 29-4 5-3 7 10 14 26 13 49 21 69 23 9 1 9 1 13-2l4-2 1 4 1 3h17l26 1c23 2 47-6 84-30l18-12 1 3c0 6-6 12-22 20-10 5-9 4-12 18-1 8-4 16-7 20-2 2-6 2-54 4l-52 2-12-4c-30-9-39-10-50-8-7 1-13 4-18 8-5 3-4 4 2 2 6-3 18-4 23-4 8 2 13 3 36 13l26 11c11 4-4 4-21-1-20-4-30-4-37 3l-2 2c12-3 28 0 54 11 24 10 36 12 53 10 17-4 32-4 47-3 18 3 34 2 42-1 6-2 14-9 18-15l2-3-4-11-3-11 4-1c5 0 16-6 23-11l8-9c3-5 3-6 3-12-1-4-1-7-3-9l-8-13c0-2 1-3 4-6l9-9c3-5 3-5 3-13l-5-27a132 132 0 01-2-54c2-12 1-13-12-12-18 1-31 6-61 22-32 18-44 22-59 22-6 0-9 0-10 2-2 1-2 1-4-1l-8-1-10-1c-4-1-4-1-7 4-4 5-4 4-6-2v-3l-23-2-24-2c-2-1 2-12 6-19l8-13c5-5 6-7 6-10 0-8-3-13-11-17l-7-5 4-3c8-3 18-1 33 4 14 6 21 7 24 6 2-1 1-2-4-3-7-2-16-7-23-14C89 1 77-2 63 1zm6 7l-1 6c-1 2-1 2-2-1-1-8-1-9 1-9 1 0 2 1 2 4zm19-1c6 3 14 9 14 11l-4-1-21-4v-3c0-3-2-4-3 0l-1 3-1-4V4c0-1 11 1 16 3zM67 28c13 7 16 10 12 16-2 3-5 4-9 3-3-1-3-2-2-4 1-3-1-4-4-2l-2 2v-7c0-7-1-8-3-2-2 7-3 7-2-1l-1-9-1-2c0-1-1-2 12 6zM50 52l18 3 7 1c2 0-9 18-13 21-2 2-6 1-5-2l-2-4-1-3-1-1-4 5-4 6 3-8 3-9-5 6-5 7 2-7c3-12 2-12-4-1-4 7-4 7-1-3 1-7 1-10-1-8l-3 8-3 6-1-6c0-6-2-8-3-3-1 2-1 2-2 0-2-2-1-8 2-11 2-2 3-2 7-2l16 5zm235 3l-3 13c-4 12-4 13-5 31l-2 25c-1 10 1 6 4-8l4-14 7 31c0 1-2 2-6 2l-9 3-45 27c-20 13-30 19-42 24s-19 7-34 8-14 1-18-5l-2-3-1 5v4h-13c-15-1-17-2-17-5l1-4 1-5c-1-2-1-2-8 4l-8 7-5-1c-9-1-24-4-34-8-10-3-45-19-46-21l6-10 8-14c3-7 6-25 6-44 0-15 1-17 2-17l12 4c20 6 43 10 63 10h10l1 5 2 7c1 0 3-1 6-5l4-5h9l8 1 2 3 2 2 3-3c4-2 4-2 9-2 12 2 29-4 55-19 36-20 48-24 64-24l9 1zm1 93l-2 8c-3 2-3 1-1-8 2-8 3-8 3 0zm-7 0v9c0 3-1 4-7 9-7 5-26 16-27 14l2-6c2-7 2-7 3-3 0 3 0 3 4-6l5-9-1 6-1 8 1 1 4-10c4-13 5-15 5-6v7c1 1 4-6 4-10l1-4c1-1 1 1 1 6-1 10 1 9 3-3 2-9 4-11 3-3zm-2 34l2 3-11 5c-15 6-13 6-13 0s1-8 3-3l1 3 1-3c1-3 2-3 2-2 1 3 3 2 3-2l2-3c3-1 8 0 10 2zm-42 10v8c3 3 6 4 13 1 5-2 9-2 10 0 0 2 1 2 2-1 1-2 2-3 4-1v3c-1 4 2 3 4-1 2-5 4-7 5-5l-2 7-2 7 8-9c2-3 3-5 4-4l-10 16c-4 5-5 5-18 9l-22 5c-7 2-28 4-29 3l5-6c6-6 11-17 14-27l1-7 6-2c7-3 9-3 7 4zM78 223c10 5 17 6 36 5l79 2c2 1 2 1-2 5-6 6-6 9-2 13 3 3 9 4 18 3l10-1c2 0 3 0 3 3l1 4 3-3c5-5 6-3 3 2l-2 5c2 0 4-3 7-8 2-4 4-6 6-5l-7 14c-2 3-2 3-11 3l-16-2-23-1-34 1c-19 1-29 0-41-5l-16-7h14c9 0 15-1 32-4l29-6h-14c-33 1-38 1-44-1l-38-19c0-1 2-1 9 2zm171 9l1 4v3a1252 1252 0 00-47 7c0-2 2-4 3-2h2l1-4h3c2 1 2 1 4-1 1-2 2-2 3-1 2 1 2 1 4-1 1-2 2-2 3-1 1 2 1 2 3-1 2-2 3-2 5-1s2 1 4-1 3-2 7-2l4 1zm-3 16c0 3-9 14-11 15l1-3 5-8c3-5 5-7 5-4z"></path>
  <path d="M272 84l-1 31c1-1 5-31 4-32-1-2-2-1-3 1zM266 92c-1 1 0 17 1 17 1 1 2 0 2-9 1-6 1-8-1-8h-2zM30 105c-1 10-4 22-10 35l-3 10 2-3 3-3 5-9c5-11 8-39 4-39l-1 9z"></path>
  <path d="M35 115c-2 9-5 16-9 25-5 11-5 12-3 10 5-4 17-33 15-35-1-2-2-1-3 0zM34 136l-4 10c2 1 10-11 10-15 0-5-2-3-6 5zM224 196l-2 4-4 13c-3 8-4 10-1 8s8-15 9-20c0-4-1-8-2-5zM225 210c-3 7-3 9 0 7 2-2 6-11 5-13-1-3-3-1-5 6z"></path>
  <text transform="translate(0 -9)">
    <textPath xlink:href="#path-4" class="name" data-max="13"></textPath>
  </text>
</svg>