<svg viewBox="0 0 500 200" width="400" xmlns="http://www.w3.org/2000/svg" xmlns:xlink="http://www.w3.org/1999/xlink" height="160">
    <defs>
        <path id="path-0" fill="none" d="M 106 155.4 L 155.4 127.8 C 208.2 94.6 245 97 245 97 C 298.866 89.306 385.6 150.2 385.6 150.2"></path>
    </defs>
    <g>
        <g transform="matrix(1.7907 0 0 -1.7907 0 1418)">
            <path fill="#231f20" d="M269 769s-2-7-10-7h-3c-9 0-23 0-27-5l-2-4h-4c-7 0-10-4-10-7 0-12 2-16 2-16h-2l-1 1v-1h-1v1l-1 1-9 5-23 13h-2l-1 1-9 2-2 1a111 111 0 01-49 0l-2-1-9-2-1-1h-2l-23-13-9-5h-1v-2h-1v1l-1-1h-2c2 6 2 13 2 16s-3 7-10 7h-4l-2 4c-4 5-18 5-27 5h-2c-8 0-10 4-11 7l-1 6s-3-5-3-9 2-7 4-9l-4 2-5 4 1-6c1-5 6-12 17-10h7v-2l2-4 3-12 2-3c3-2 8-2 9-1l1-1 2-3a935 935 0 011-10v-2l1-3c1-1 5-5 14-6h1v1l1-1h1c8 0 14 3 19 6h1v1a2750 2750 0 003 2h2l4 3a107 107 0 0029 15 65 65 0 0035 0l1-1c11-3 20-9 28-14l4-3h2v-2h3v-1h1c5-3 11-6 19-6h1a1789 1789 0 002 0h1c8 1 13 5 13 6l1 3v2a33 33 0 002 10c0 2 1 2 2 3v1c1-1 6-1 9 1l2 3 3 12 2 5v1h7c11-2 15 5 17 9v6l-4-3s-1-2-4-2c2 2 4 5 4 9s-3 7-3 7l-1-4"></path>
            <path class="background" d="M8 769s2-9 13-9c10 0 31 1 29-9l-6-2-6 3c-3 2-11 4-12-3h-8c-9-2-13 4-14 8 0 0 5-4 13-2 0 0-12 5-9 14"></path>
            <path class="background" d="M37 751c-5 4-9 1-10-2 5 2 8 0 8 0-4 1-7-1-7-1v-1c5 1 7-1 7-1h-6l5-1 9 3-6 3"></path>
            <path class="background" d="M56 751h-2v-1l-1-1h-2v1l-17-6-6 1c0-3 4-4 5-15 0-5 9-3 9-3l-1 4c0 8 8 8 16 10 9 1 10 9-1 10"></path>
            <path class="background" d="M53 728a236 236 0 009 2v2c-5-2-11-2-11-2a232 232 0 0012 3v2c-5-3-13-2-13-2a234 234 0 0013 4v1c-5-3-13-2-13-2a233 233 0 0013 4v2s-1-2-8-3c-5-1-10-3-10-7s4-6 7-6c5 0 9 2 9 2l1 1-9-1m218 41s-2-9-12-9c-11 0-32 1-30-9l6-2 6 3c3 2 11 4 12-3h8c9-2 13 4 14 8 0 0-5-4-12-2 0 0 11 5 8 14"></path>
            <path class="background" d="M243 751c5 4 9 1 10-2-5 2-8 0-8 0 4 1 7-1 8-1l-1-1c-5 1-7-1-7-1h6l-4-1-10 3 6 3m-102-20l17-2 2 1v-2c13-4 23-11 32-17l3 1v-3l3 1v-2c6-4 12-6 18-6l1 2 2-2c8 1 12 4 12 5l1 4 1 10-1 1h2c1 4 4 4 4 9 0 6-6 7-6 7s4-2 4-6-3-7-9-7c-5 0-9 1-14 4l-3-2v3c-9 5-18 12-32 18l-3-2v3l-8 2-1-1-1 2a108 108 0 01-49 0v-2l-2 1-8-2v-3l-3 2c-14-6-23-13-32-18v-3l-3 2c-5-3-9-4-14-4-6 0-9 3-9 7s4 6 4 6-6-1-6-7c0-5 3-5 4-9h2l-1-1 1-10 1-4c0-1 4-4 12-5l2 2 1-2c6 0 12 2 18 6v2l3-1v3l3-1c9 6 19 13 32 17v2l2-1 18 2"></path>
            <path class="background" d="M223 751h3l-1-1 1-1h2v1l17-6 6 1c0-3-4-4-5-15 0-5-9-3-9-3l1 4c0 8-8 8-16 10-9 1-10 9 1 10"></path>
            <path class="background" d="M227 728l-9 2h-1v2c5-2 11-2 11-2l-8 2-4 1v2c6-3 13-2 13-2l-8 2-5 2v1c5-3 13-2 13-2l-8 2-5 2v2s1-2 8-3c5-1 10-3 10-7s-4-6-7-6c-5 0-9 2-9 2v1l9-1"></path>
        </g>
        <text transform="matrix(1, 0, 0, 1, 1, -4)">
            <textPath xlink:href="#path-0">
                <tspan class="name" data-max="17"></tspan>
            </textPath>
        </text>
    </g>
</svg>